<?xml version="1.0" encoding="utf-8"?>
<!-- Svg Vector Icons : http://www.onlinewebfonts.com/icon -->
<!DOCTYPE svg PUBLIC "-//W3C//DTD SVG 1.1//EN" "http://www.w3.org/Graphics/SVG/1.1/DTD/svg11.dtd">
<svg version="1.1" xmlns="http://www.w3.org/2000/svg" xmlns:xlink="http://www.w3.org/1999/xlink" x="0px" y="0px" viewBox="0 0 1000 1000" enable-background="new 0 0 1000 1000" xml:space="preserve">
<metadata> Svg Vector Icons : http://www.onlinewebfonts.com/icon </metadata>
<g><path d="M211.4,185.6c29.4-3.6,67.5,11.8,14,55.2l-34.8,24.1c0,0,95.4,8.8,116.6-51.3c17-47.9-22.5-65-86.1-54.4c-22.6,3.8-35.4-7.8-23.6-39.9c7.5-20.5,35.1-50.6,59.2-55.9c0,0-23.2,1.4-30.3,2.2c-35.3,4.4-87.4,25.7-87.4,78.7C139.1,174.3,185,188.9,211.4,185.6z"/><path d="M532.8,185.6c29.4-3.6,67.5,11.8,14,55.2l-34.8,24.1c0,0,95.4,8.8,116.6-51.3c17-47.9-22.5-65-86.1-54.4c-22.6,3.8-35.4-7.8-23.6-39.9c7.5-20.5,35.1-50.6,59.2-55.9c0,0-23.2,1.4-30.3,2.2c-35.3,4.4-87.4,25.7-87.4,78.7C460.5,174.3,506.4,188.9,532.8,185.6z"/><path d="M383.6,226.7c29.4-3.6,67.5,11.8,14,55.2L362.8,306c0,0,95.4,8.8,116.6-51.3c17-47.9-22.5-65-86.1-54.4c-22.6,3.8-35.4-7.8-23.6-39.9c7.5-20.5,35.1-50.6,59.2-55.9c0,0-23.2,1.4-30.3,2.2c-35.3,4.4-87.4,25.7-87.4,78.7C311.3,215.4,357.2,230,383.6,226.7z"/><path d="M862,367.5h-76.6V326H14.1l-2.2,80.7C11.9,523.4,53,601.8,53,601.8c56.8,124.8,168.9,180.9,168.9,180.9l-0.7,28.4h355l1.5-36.6l85.2-59.8l19.4-7.5c32.1-10.5,61.3-17.2,61.3-17.2c216.7-47.8,236.6-137.5,236.6-137.5C1032.1,392.6,862,367.5,862,367.5z M927.4,526.3c0,0-35.1,68-129.3,98.7l-38.9,12.7h-41.1c0,0,37.9-63.7,50.8-99.8c15.9-44.3,18.7-104.3,18.7-104.3h77C864.7,433.7,962.6,447.1,927.4,526.3z"/><path d="M10,861.1c19.8,45.5,274.7,75.5,274.7,75.5H503c160,0,274.3-73.1,274.3-73.1V841H10.7L10,861.1z"/></g>
</svg>